<svg xmlns="http://www.w3.org/2000/svg" version="1.1" xmlns:xlink="http://www.w3.org/1999/xlink" xmlns:svgjs="http://svgjs.dev/svgjs" width="128" height="128" viewBox="0 0 128 128"><g transform="matrix(0.8046875,0,0,0.8046875,12.142221043122007,6.558313232421874)"><svg viewBox="0 0 86 96" data-background-color="#000000" preserveAspectRatio="xMidYMid meet" height="142" width="128" xmlns="http://www.w3.org/2000/svg" xmlns:xlink="http://www.w3.org/1999/xlink"><g id="tight-bounds" transform="matrix(1,0,0,1,0.2987280610825991,0.25950000000000273)"><svg viewBox="0 0 85.4025438778348 95.481" height="95.481" width="85.4025438778348"><g><svg viewBox="0 0 85.4025438778348 95.481" height="95.481" width="85.4025438778348"><g><svg viewBox="0 0 85.4025438778348 95.481" height="95.481" width="85.4025438778348"><g id="textblocktransform"><svg viewBox="0 0 85.4025438778348 95.481" height="95.481" width="85.4025438778348" id="textblock"><g><svg viewBox="0 0 85.4025438778348 95.481" height="95.481" width="85.4025438778348"><g><svg viewBox="0 0 85.4025438778348 95.481" height="95.481" width="85.4025438778348"><g><svg xmlns="http://www.w3.org/2000/svg" xmlns:xlink="http://www.w3.org/1999/xlink" version="1.1" x="0" y="0" viewBox="9.622 5.447 70.756 79.106" enable-background="new 0 0 90 90" xml:space="preserve" height="95.481" width="85.4025438778348" class="icon-icon-0" data-fill-palette-color="accent" id="icon-0"><g fill="#6e0cc9" data-fill-palette-color="accent"><path d="M61.683 35.037H28.316V14.996L45 5.447 61.684 14.996zM31.106 32.247H58.893V16.615L44.999 8.663 31.105 16.615z" fill="#6e0cc9" data-fill-palette-color="accent"></path></g><g fill="#6e0cc9" data-fill-palette-color="accent"><path d="M44.999 84.553L28.225 79.219V43.936H61.772V79.219zM31.196 77.123L45 81.512 58.804 77.123V46.828H31.196z" fill="#6e0cc9" data-fill-palette-color="accent"></path></g><g fill="#6e0cc9" data-fill-palette-color="accent"><path d="M26.562 77.014L9.622 60.515V13.841H26.562zM12.388 59.4L23.797 70.507V16.534H12.388z" fill="#6e0cc9" data-fill-palette-color="accent"></path></g><g fill="#6e0cc9" data-fill-palette-color="accent"><path d="M63.435 77.014V13.841H80.378V60.514zM66.203 16.534V70.507L77.609 59.4V16.534z" fill="#6e0cc9" data-fill-palette-color="accent"></path></g><polygon points="28.316,37.5 36.769,37.5 38.919,41.04 30.573,41.04 " fill="#6e0cc9" data-fill-palette-color="accent"></polygon><polygon points="61.683,37.5 53.229,37.5 51.08,41.04 59.425,41.04 " fill="#6e0cc9" data-fill-palette-color="accent"></polygon></svg></g></svg></g></svg></g></svg></g></svg></g></svg></g><defs></defs></svg><rect width="85.4025438778348" height="95.481" fill="none" stroke="none" visibility="hidden"></rect></g></svg></g></svg>