<svg xmlns="http://www.w3.org/2000/svg" version="1.1" xmlns:xlink="http://www.w3.org/1999/xlink" xmlns:svgjs="http://svgjs.dev/svgjs" width="1500" height="549" viewBox="0 0 1500 549"><g transform="matrix(1,0,0,1,-0.9090909090909918,-1.4930814004715103)"><svg viewBox="0 0 396 145" data-background-color="#000000" preserveAspectRatio="xMidYMid meet" height="549" width="1500" xmlns="http://www.w3.org/2000/svg" xmlns:xlink="http://www.w3.org/1999/xlink"><g id="tight-bounds" transform="matrix(1,0,0,1,0.2400000000000091,0.39434754657261806)"><svg viewBox="0 0 395.52 144.21130490685476" height="144.21130490685476" width="395.52"><g><svg viewBox="0 0 615.6488310717464 224.47289970984104" height="144.21130490685476" width="395.52"><g transform="matrix(1,0,0,1,220.12883107174633,31.02338917842232)"><svg viewBox="0 0 395.52 162.4261213529964" height="162.4261213529964" width="395.52"><g id="textblocktransform"><svg viewBox="0 0 395.52 162.4261213529964" height="162.4261213529964" width="395.52" id="textblock"><g><svg viewBox="0 0 395.52 81.96543610547668" height="81.96543610547668" width="395.52"><g transform="matrix(1,0,0,1,0,0)"><svg width="395.52" viewBox="0.05 -30.1 147.88 30.650000000000002" height="81.96543610547668" data-palette-color="#ffffff"><path d="M20.65 0L0.05 0 4.15-29.55 16.65-29.55 20.65 0ZM4.9-28.65L1.05-0.9 9.5-0.9 9.8-4.8 10.55-4.8 10.95-0.9 19.65-0.9 15.9-28.65 4.9-28.65ZM9.1-1.35L1.55-1.35 5.25-28.2 15.5-28.2 19.1-1.35 11.3-1.35 10.95-5.25 9.35-5.25 9.1-1.35ZM10.2-22.5L9.4-8.75 10.95-8.75 10.2-22.5ZM10.55-9.2L9.85-9.2 10.2-14.55 10.55-9.2ZM30.1 0.55L30.1 0.55Q27.05 0.55 25.12-0.15 23.2-0.85 22.25-2.88 21.3-4.9 21.3-8.8L21.3-8.8 21.3-29.55 38.9-29.55 38.9-8.8Q38.9-4.9 37.95-2.88 37-0.85 35.05-0.15 33.1 0.55 30.1 0.55ZM30.1-0.3L30.1-0.3Q32.85-0.3 34.6-0.95 36.35-1.6 37.2-3.43 38.05-5.25 38.05-8.8L38.05-8.8 38.05-28.7 30.4-28.7 30.4-6.35Q30.4-5.7 30.1-5.7L30.1-5.7Q29.8-5.7 29.8-6.35L29.8-6.35 29.8-28.7 22.15-28.7 22.15-8.8Q22.15-5.3 23-3.48 23.85-1.65 25.62-0.98 27.4-0.3 30.1-0.3ZM30.1-0.75L30.1-0.75Q27.6-0.75 25.92-1.35 24.25-1.95 23.42-3.7 22.6-5.45 22.6-8.8L22.6-8.8 22.6-28.3 29.4-28.3 29.4-6.45Q29.4-5.25 30.1-5.25L30.1-5.25Q30.85-5.25 30.85-6.45L30.85-6.45 30.85-28.3 37.65-28.3 37.65-8.8Q37.65-5.45 36.82-3.7 36-1.95 34.32-1.35 32.65-0.75 30.1-0.75ZM52.55 0L43.25 0 43.25-21.8 39.65-21.8 39.65-29.55 56.1-29.55 56.1-21.8 52.55-21.8 52.55 0ZM44.1-22.7L44.1-0.9 51.7-0.9 51.7-22.7 55.3-22.7 55.3-28.65 40.5-28.65 40.5-22.7 44.1-22.7ZM51.25-1.35L44.55-1.35 44.55-23.15 40.95-23.15 40.95-28.2 54.85-28.2 54.85-23.15 51.25-23.15 51.25-1.35ZM65.49 0.55L65.49 0.55Q62.44 0.55 60.42-0.28 58.39-1.1 57.39-3.23 56.39-5.35 56.39-9.25L56.39-9.25 56.39-22.6Q56.39-26.65 58.89-28.38 61.39-30.1 65.49-30.1L65.49-30.1Q69.59-30.1 71.92-28.4 74.24-26.7 74.24-22.6L74.24-22.6 74.24-9.3Q74.24-5.35 73.32-3.23 72.39-1.1 70.47-0.28 68.54 0.55 65.49 0.55ZM65.49-0.3L65.49-0.3Q68.24-0.3 69.97-1.05 71.69-1.8 72.54-3.78 73.39-5.75 73.39-9.3L73.39-9.3 73.39-22.6Q73.39-26.25 71.29-27.75 69.19-29.25 65.49-29.25L65.49-29.25Q61.79-29.25 59.52-27.75 57.24-26.25 57.24-22.6L57.24-22.6 57.24-9.25Q57.24-5.7 58.17-3.75 59.09-1.8 60.92-1.05 62.74-0.3 65.49-0.3ZM65.49-0.75L65.49-0.75Q62.84-0.75 61.12-1.45 59.39-2.15 58.54-4 57.69-5.85 57.69-9.25L57.69-9.25 57.69-22.6Q57.69-26 59.82-27.4 61.94-28.8 65.49-28.8L65.49-28.8Q68.99-28.8 70.97-27.43 72.94-26.05 72.94-22.6L72.94-22.6 72.94-9.3Q72.94-5.9 72.17-4.05 71.39-2.2 69.77-1.48 68.14-0.75 65.49-0.75ZM65.49-5L65.49-5Q65.84-5 65.99-5.23 66.14-5.45 66.14-6.25L66.14-6.25 66.14-23.05Q66.14-23.75 66.02-24.03 65.89-24.3 65.49-24.3L65.49-24.3Q65.14-24.3 64.97-24.03 64.79-23.75 64.79-23.05L64.79-23.05 64.79-6.25Q64.79-5 65.49-5ZM65.49-5.4L65.49-5.4Q65.19-5.4 65.19-6.1L65.19-6.1 65.19-23.25Q65.19-23.85 65.49-23.85L65.49-23.85Q65.74-23.85 65.74-23.25L65.74-23.25 65.74-6.1Q65.74-5.4 65.49-5.4ZM85.89 0L75.04 0 75.04-29.55 86.29-29.55Q89.84-29.55 91.42-27.9 92.99-26.25 92.99-23.6L92.99-23.6 92.99-20.7Q92.99-17.75 91.44-16L91.44-16Q93.64-14.4 93.64-10.55L93.64-10.55 93.64-7.05Q93.64-3.05 91.59-1.53 89.54 0 85.89 0L85.89 0ZM75.89-28.65L75.89-0.9 85.89-0.9Q89.19-0.9 90.97-2.25 92.74-3.6 92.74-7.05L92.74-7.05 92.74-10.55Q92.74-14.95 89.74-15.85L89.74-15.85Q90.99-16.55 91.54-17.82 92.09-19.1 92.09-20.7L92.09-20.7 92.09-23.6Q92.09-25.85 90.74-27.25 89.39-28.65 86.29-28.65L86.29-28.65 75.89-28.65ZM85.89-1.35L76.29-1.35 76.29-28.2 86.29-28.2Q89.14-28.2 90.42-26.93 91.69-25.65 91.69-23.6L91.69-23.6 91.69-20.7Q91.69-18.8 90.81-17.43 89.94-16.05 87.89-15.8L87.89-15.8 87.89-15.7Q89.74-15.7 91.04-14.45 92.34-13.2 92.34-10.55L92.34-10.55 92.34-7.05Q92.34-3.8 90.62-2.58 88.89-1.35 85.89-1.35L85.89-1.35ZM83.44-24.4L83.44-17.15 83.99-17.15Q84.49-17.15 84.69-18.2L84.69-18.2Q84.79-18.75 84.84-19.38 84.89-20 84.89-20.75L84.89-20.75Q84.89-21.55 84.87-22.2 84.84-22.85 84.79-23.35L84.79-23.35Q84.74-24.4 84.09-24.4L84.09-24.4 83.44-24.4ZM83.99-17.6L83.89-17.6 83.89-23.9 84.09-23.9Q84.34-23.9 84.39-23L84.39-23Q84.44-22.5 84.44-21.95 84.44-21.4 84.44-20.75L84.44-20.75Q84.44-20.1 84.42-19.55 84.39-19 84.34-18.55L84.34-18.55Q84.29-17.6 83.99-17.6L83.99-17.6ZM83.44-12.65L83.44-5.05 84.09-5.05Q84.54-5.05 84.74-6.15L84.74-6.15Q84.89-7.3 84.89-8.85L84.89-8.85Q84.89-9.65 84.87-10.33 84.84-11 84.79-11.55L84.79-11.55Q84.74-12.65 84.09-12.65L84.09-12.65 83.44-12.65ZM84.09-5.5L83.89-5.5 83.89-12.2 84.09-12.2Q84.34-12.2 84.39-11.25L84.39-11.25Q84.44-10.75 84.44-10.15 84.44-9.55 84.44-8.85L84.44-8.85Q84.44-8.15 84.44-7.58 84.44-7 84.39-6.5L84.39-6.5Q84.29-5.5 84.09-5.5L84.09-5.5ZM103.19 0.55L103.19 0.55Q100.14 0.55 98.11-0.28 96.09-1.1 95.09-3.23 94.09-5.35 94.09-9.25L94.09-9.25 94.09-22.6Q94.09-26.65 96.59-28.38 99.09-30.1 103.19-30.1L103.19-30.1Q107.29-30.1 109.61-28.4 111.94-26.7 111.94-22.6L111.94-22.6 111.94-9.3Q111.94-5.35 111.01-3.23 110.09-1.1 108.16-0.28 106.24 0.55 103.19 0.55ZM103.19-0.3L103.19-0.3Q105.94-0.3 107.66-1.05 109.39-1.8 110.24-3.78 111.09-5.75 111.09-9.3L111.09-9.3 111.09-22.6Q111.09-26.25 108.99-27.75 106.89-29.25 103.19-29.25L103.19-29.25Q99.49-29.25 97.21-27.75 94.94-26.25 94.94-22.6L94.94-22.6 94.94-9.25Q94.94-5.7 95.86-3.75 96.79-1.8 98.61-1.05 100.44-0.3 103.19-0.3ZM103.19-0.75L103.19-0.75Q100.54-0.75 98.81-1.45 97.09-2.15 96.24-4 95.39-5.85 95.39-9.25L95.39-9.25 95.39-22.6Q95.39-26 97.51-27.4 99.64-28.8 103.19-28.8L103.19-28.8Q106.69-28.8 108.66-27.43 110.64-26.05 110.64-22.6L110.64-22.6 110.64-9.3Q110.64-5.9 109.86-4.05 109.09-2.2 107.46-1.48 105.84-0.75 103.19-0.75ZM103.19-5L103.19-5Q103.54-5 103.69-5.23 103.84-5.45 103.84-6.25L103.84-6.25 103.84-23.05Q103.84-23.75 103.71-24.03 103.59-24.3 103.19-24.3L103.19-24.3Q102.84-24.3 102.66-24.03 102.49-23.75 102.49-23.05L102.49-23.05 102.49-6.25Q102.49-5 103.19-5ZM103.19-5.4L103.19-5.4Q102.89-5.4 102.89-6.1L102.89-6.1 102.89-23.25Q102.89-23.85 103.19-23.85L103.19-23.85Q103.44-23.85 103.44-23.25L103.44-23.25 103.44-6.1Q103.44-5.4 103.19-5.4ZM125.14 0L115.84 0 115.84-21.8 112.24-21.8 112.24-29.55 128.69-29.55 128.69-21.8 125.14-21.8 125.14 0ZM116.69-22.7L116.69-0.9 124.29-0.9 124.29-22.7 127.89-22.7 127.89-28.65 113.09-28.65 113.09-22.7 116.69-22.7ZM123.84-1.35L117.14-1.35 117.14-23.15 113.54-23.15 113.54-28.2 127.44-28.2 127.44-23.15 123.84-23.15 123.84-1.35ZM138.23 0.35L138.23 0.35Q135.03 0.35 133.03-0.5 131.03-1.35 130.06-3.38 129.08-5.4 129.08-9.05L129.08-9.05 129.08-11.15 134.88-11.15Q132.73-11.95 131.51-13.08 130.28-14.2 129.78-15.98 129.28-17.75 129.28-20.55L129.28-20.55Q129.28-24 130.13-26 130.98-28 132.98-28.85 134.98-29.7 138.48-29.7L138.48-29.7Q147.63-29.7 147.63-21.8L147.63-21.8 147.63-17.4 143.83-17.4Q145.38-16.6 146.26-15.6 147.13-14.6 147.53-13.08 147.93-11.55 147.93-9.15L147.93-9.15Q147.93-4 145.43-1.83 142.93 0.35 138.23 0.35ZM138.23-0.55L138.23-0.55Q142.48-0.55 144.78-2.5 147.08-4.45 147.08-9.15L147.08-9.15Q147.08-11.85 146.63-13.3 146.18-14.75 144.93-15.63 143.68-16.5 141.28-17.4L141.28-17.4Q140.48-17.7 140.08-17.9 139.68-18.1 139.38-18.3L139.38-18.3 146.78-18.3 146.78-21.8Q146.78-28.8 138.48-28.8L138.48-28.8Q135.33-28.8 133.53-28 131.73-27.2 130.96-25.4 130.18-23.6 130.18-20.55L130.18-20.55Q130.18-17.35 131.08-15.35 131.98-13.35 134.58-12.15L134.58-12.15Q135.73-11.6 136.51-11.2 137.28-10.8 137.83-10.35L137.83-10.35 129.93-10.35 129.93-9.05Q129.93-4.2 131.91-2.38 133.88-0.55 138.23-0.55ZM138.23-1L138.23-1Q134.13-1 132.26-2.7 130.38-4.4 130.38-9.05L130.38-9.05 130.38-9.9 137.58-9.9 137.58-7.25Q137.58-5.95 137.81-5.5 138.03-5.05 138.48-5.05L138.48-5.05Q138.98-5.05 139.16-5.6 139.33-6.15 139.33-7.55L139.33-7.55Q139.33-9.05 138.86-9.85 138.38-10.65 137.38-11.23 136.38-11.8 134.73-12.55L134.73-12.55Q132.28-13.7 131.43-15.58 130.58-17.45 130.58-20.55L130.58-20.55Q130.58-23.45 131.31-25.15 132.03-26.85 133.76-27.58 135.48-28.3 138.48-28.3L138.48-28.3Q146.33-28.3 146.33-21.8L146.33-21.8 146.33-18.75 139.48-18.75 139.48-19.5Q139.48-20.45 139.46-21.13 139.43-21.8 139.38-22.3L139.38-22.3Q139.33-23.25 138.58-23.25L138.58-23.25Q138.23-23.25 137.98-22.85 137.73-22.45 137.73-21.05L137.73-21.05Q137.73-19.6 138.16-18.9 138.58-18.2 139.38-17.85 140.18-17.5 141.23-17.05L141.23-17.05Q143.28-16.25 144.46-15.4 145.63-14.55 146.13-13.13 146.63-11.7 146.63-9.15L146.63-9.15Q146.63-4.7 144.43-2.85 142.23-1 138.23-1ZM139.03-19.5L139.03-18.55Q138.63-18.9 138.38-19.45 138.13-20 138.13-21.05L138.13-21.05Q138.13-22.1 138.26-22.45 138.38-22.8 138.58-22.8L138.58-22.8Q138.88-22.8 138.98-21.95L138.98-21.95Q139.03-21.55 139.03-20.93 139.03-20.3 139.03-19.5L139.03-19.5ZM138.48-5.5L138.48-5.5Q138.18-5.5 138.11-5.9 138.03-6.3 138.03-7.4L138.03-7.4 138.03-10.25Q138.48-9.75 138.71-9.1 138.93-8.45 138.93-7.4L138.93-7.4Q138.93-6.25 138.83-5.88 138.73-5.5 138.48-5.5Z" opacity="1" transform="matrix(1,0,0,1,0,0)" fill="#ffffff" class="wordmark-text-0" data-fill-palette-color="primary" id="text-0"></path></svg></g></svg></g><g transform="matrix(1,0,0,1,43.50719999999998,101.31550839951319)"><svg viewBox="0 0 308.5056 61.1106129534832" height="61.1106129534832" width="308.5056"><g transform="matrix(1,0,0,1,0,0)"><svg width="308.5056" viewBox="1.98 -35.99 219.37 43.46" height="61.1106129534832" data-palette-color="#ffffff"><path d="M35.91-26.44L35.91-26.44 31.74-24.68Q31.25-26.27 30.43-27.59 29.61-28.91 28.48-29.85 27.34-30.79 25.9-31.31 24.46-31.84 22.75-31.84L22.75-31.84Q20.92-31.84 19.4-31.23 17.87-30.62 16.66-29.58 15.45-28.54 14.55-27.15 13.65-25.76 13.05-24.18 12.45-22.61 12.15-20.92 11.84-19.24 11.84-17.63L11.84-17.63Q11.84-15.06 12.44-12.52 13.04-9.99 14.34-7.96 15.65-5.93 17.72-4.68 19.8-3.42 22.75-3.42L22.75-3.42Q24.37-3.42 25.27-4.14 26.17-4.86 26.17-6.67L26.17-6.67 26.17-17.46 35.86-17.46 35.86 0 33.06 0 31.35-2.76Q29-0.98 26.18-0.13 23.36 0.71 20.43 0.71L20.43 0.71Q17.85 0.71 15.47 0.07 13.09-0.56 11.04-1.73 8.98-2.91 7.31-4.57 5.64-6.23 4.46-8.25 3.27-10.28 2.62-12.66 1.98-15.04 1.98-17.63L1.98-17.63Q1.98-20.21 2.62-22.6 3.27-24.98 4.46-27.01 5.64-29.05 7.31-30.71 8.98-32.37 11.04-33.54 13.09-34.72 15.47-35.35 17.85-35.99 20.43-35.99L20.43-35.99Q22.92-35.99 25.31-35.4 27.69-34.81 29.74-33.63 31.79-32.45 33.39-30.65 34.99-28.86 35.91-26.44ZM76.19-16.82L76.19-16.82 76.19-16.36Q76.14-14.31 75.77-12.11 75.39-9.91 74.7-7.71 74.02-5.52 73.07-3.37 72.12-1.22 70.93 0.74 69.75 2.71 68.38 4.43 67.01 6.15 65.5 7.47L65.5 7.47 61.86 5.37Q62.72 3.93 63.41 2.23 64.11 0.54 64.67-1.32 65.23-3.17 65.63-5.13 66.04-7.08 66.31-9.01 66.57-10.94 66.71-12.81 66.84-14.67 66.84-16.36L66.84-16.36Q66.84-17.68 66.83-19.35 66.82-21.02 66.64-22.75 66.45-24.49 66.04-26.14 65.62-27.78 64.8-29.08 63.99-30.37 62.71-31.15 61.42-31.93 59.52-31.93L59.52-31.93Q57.83-31.93 56.63-31.36 55.42-30.79 54.58-29.82 53.73-28.86 53.23-27.59 52.73-26.32 52.45-24.91 52.17-23.51 52.08-22.08 52-20.65 52-19.38L52-19.38 52-12.57 62.52-12.57 62.52-8.54 52-8.54 52 0 42.31 0 42.31-17.87Q42.31-21.7 43.53-25 44.75-28.3 46.98-30.73 49.22-33.15 52.35-34.53 55.49-35.91 59.35-35.91L59.35-35.91Q61.96-35.91 64.24-35.17 66.53-34.42 68.41-33.12 70.29-31.81 71.76-30.02 73.24-28.22 74.23-26.1 75.22-23.97 75.73-21.61 76.24-19.24 76.19-16.82ZM97.04 0L89.01-26.22 86.27 0 80.29 0 86.27-35.16 95.14-35.16 103.36-8.33 111.69-35.16 120.55-35.16 125.53 0 115.67 0 112.76-25.54 105.9 0 97.04 0ZM141.37-35.16L141.37 0 131.68 0 131.68-35.16 141.37-35.16ZM153.82-24.12L153.82 0 149.33 0 149.33-35.16 155.63-35.16 176.99-11.01 176.99-35.16 181.46-35.16 181.46 0 175.16 0 153.82-24.12ZM221.35-26.44L221.35-26.44 217.18-24.68Q216.69-26.27 215.87-27.59 215.05-28.91 213.92-29.85 212.78-30.79 211.34-31.31 209.9-31.84 208.19-31.84L208.19-31.84Q206.36-31.84 204.83-31.23 203.31-30.62 202.1-29.58 200.89-28.54 199.99-27.15 199.08-25.76 198.49-24.18 197.89-22.61 197.58-20.92 197.28-19.24 197.28-17.63L197.28-17.63Q197.28-15.06 197.88-12.52 198.47-9.99 199.78-7.96 201.09-5.93 203.16-4.68 205.24-3.42 208.19-3.42L208.19-3.42Q209.8-3.42 210.71-4.14 211.61-4.86 211.61-6.67L211.61-6.67 211.61-17.46 221.3-17.46 221.3 0 218.49 0 216.78-2.76Q214.44-0.98 211.62-0.13 208.8 0.71 205.87 0.71L205.87 0.71Q203.28 0.71 200.9 0.07 198.52-0.56 196.47-1.73 194.42-2.91 192.75-4.57 191.08-6.23 189.89-8.25 188.71-10.28 188.06-12.66 187.41-15.04 187.41-17.63L187.41-17.63Q187.41-20.21 188.06-22.6 188.71-24.98 189.89-27.01 191.08-29.05 192.75-30.71 194.42-32.37 196.47-33.54 198.52-34.72 200.9-35.35 203.28-35.99 205.87-35.99L205.87-35.99Q208.36-35.99 210.74-35.4 213.12-34.81 215.17-33.63 217.22-32.45 218.82-30.65 220.42-28.86 221.35-26.44Z" opacity="1" transform="matrix(1,0,0,1,0,0)" fill="#ffffff" class="slogan-text-1" data-fill-palette-color="secondary" id="text-1"></path></svg></g></svg></g></svg></g></svg></g><g><svg viewBox="0 0 200.7787587777098 224.47289970984104" height="224.47289970984104" width="200.7787587777098"><g><svg xmlns="http://www.w3.org/2000/svg" xmlns:xlink="http://www.w3.org/1999/xlink" version="1.1" x="0" y="0" viewBox="9.622 5.447 70.756 79.106" enable-background="new 0 0 90 90" xml:space="preserve" height="224.47289970984104" width="200.7787587777098" class="icon-icon-0" data-fill-palette-color="accent" id="icon-0"><g fill="#6e0cc9" data-fill-palette-color="accent"><path d="M61.683 35.037H28.316V14.996L45 5.447 61.684 14.996zM31.106 32.247H58.893V16.615L44.999 8.663 31.105 16.615z" fill="#6e0cc9" data-fill-palette-color="accent"></path></g><g fill="#6e0cc9" data-fill-palette-color="accent"><path d="M44.999 84.553L28.225 79.219V43.936H61.772V79.219zM31.196 77.123L45 81.512 58.804 77.123V46.828H31.196z" fill="#6e0cc9" data-fill-palette-color="accent"></path></g><g fill="#6e0cc9" data-fill-palette-color="accent"><path d="M26.562 77.014L9.622 60.515V13.841H26.562zM12.388 59.4L23.797 70.507V16.534H12.388z" fill="#6e0cc9" data-fill-palette-color="accent"></path></g><g fill="#6e0cc9" data-fill-palette-color="accent"><path d="M63.435 77.014V13.841H80.378V60.514zM66.203 16.534V70.507L77.609 59.4V16.534z" fill="#6e0cc9" data-fill-palette-color="accent"></path></g><polygon points="28.316,37.5 36.769,37.5 38.919,41.04 30.573,41.04 " fill="#6e0cc9" data-fill-palette-color="accent"></polygon><polygon points="61.683,37.5 53.229,37.5 51.08,41.04 59.425,41.04 " fill="#6e0cc9" data-fill-palette-color="accent"></polygon></svg></g></svg></g></svg></g><defs></defs></svg><rect width="395.52" height="144.21130490685476" fill="none" stroke="none" visibility="hidden"></rect></g></svg></g></svg>